<svg viewBox="0 0 400 400" xmlns="http://www.w3.org/2000/svg" ><g transform="matrix(4,0,0,4,0,0)"><path d="M9.897 53.361 A40.000 40.000 0 1 0 89.897 53.361 A40.000 40.000 0 1 0 9.897 53.361 Z" fill="#D9EDFF" /><path d="M9.302 84.088 A39.053 1.571 0 1 0 87.408 84.088 A39.053 1.571 0 1 0 9.302 84.088 Z" fill="#B0D9FF" /><path d="M57.274,76.659c-2.751,0-6.123,9.573-15.807,5.577-4.595-1.9-13.485,3.827-16.878-1.7-.2-.325-.437-.743-.437-.743,7.366.695,5.468-5.285,14.1-3.436a3.074,3.074,0,0,0,2.589-.686,3.176,3.176,0,0,0,1.142-2.423,3.4,3.4,0,0,0-3.4-3.416H36.914A11.17,11.17,0,0,1,25.757,58.677a10.907,10.907,0,0,1,3.359-7.852,3.245,3.245,0,0,0,.891-3.21c-.361-1.321-.292-8.134,3.616-8.134l1.387,5.227c1.054,3.854,2.244,8.86-.644,11.616a3.27,3.27,0,0,0-1.007,2.353,3.559,3.559,0,0,0,3.555,3.555A5.082,5.082,0,0,0,42,57.15V35.577a15.28,15.28,0,1,1,30.56,0V57.15a5.082,5.082,0,0,0,5.082,5.082,3.558,3.558,0,0,0,3.554-3.555,3.27,3.27,0,0,0-1.007-2.353c-2.888-2.756-1.7-7.762-.643-11.616l1.387-5.227c3.908,0,3.977,6.813,3.615,8.134a3.247,3.247,0,0,0,.891,3.21,10.908,10.908,0,0,1,3.36,7.852A11.17,11.17,0,0,1,77.638,69.834H75.972a3.4,3.4,0,0,0-3.4,3.416,3.169,3.169,0,0,0,1.142,2.423,3.072,3.072,0,0,0,2.588.686c8.629-1.849,6.731,4.131,14.1,3.436,0,0-.237.418-.437.743-3.393,5.525-12.283-.2-16.877,1.7-9.684,4-13.057-5.577-15.807-5.577Z" fill="#B0D9FF" stroke="#020064" strokeLinecap="round" strokeLinejoin="round" /><path d="M57.274,76.659c-2.751,0-6.123,9.573-15.807,5.577-4.595-1.9-13.485,3.827-16.878-1.7-.2-.325-.437-.743-.437-.743,5.143,3.568,8.784-2.3,17.526-.586,12.414,2.436,7.641-4.793,15.6-2.55" fill="#ffffff" stroke="#020064" strokeLinecap="round" strokeLinejoin="round" /><path d="M72.878,79.209c-12.414,2.436-7.641-4.793-15.6-2.55h0c2.75,0,6.123,9.573,15.807,5.577,4.594-1.9,13.484,3.827,16.877-1.7.2-.325.437-.743.437-.743C85.236,83.419,81.641,77.489,72.878,79.209Z" fill="#ffffff" stroke="#020064" strokeLinecap="round" strokeLinejoin="round" /><path d="M57.276,50.026a6.067,6.067,0,0,0,6.12-5.1.542.542,0,0,0-.176-.472.607.607,0,0,0-.5-.147,34.4,34.4,0,0,1-10.879,0,.605.605,0,0,0-.5.147.542.542,0,0,0-.177.472A6.068,6.068,0,0,0,57.276,50.026Z" fill="#ffffff" stroke="#020064" strokeLinecap="round" strokeLinejoin="round" /><path d="M80.542 49.617 A1.115 1.566 0 1 0 82.772 49.617 A1.115 1.566 0 1 0 80.542 49.617 Z" fill="#ffffff" stroke="#020064" strokeLinecap="round" strokeLinejoin="round" /><path d="M83.466 56.692 A1.115 1.566 0 1 0 85.696 56.692 A1.115 1.566 0 1 0 83.466 56.692 Z" fill="#ffffff" stroke="#020064" strokeLinecap="round" strokeLinejoin="round" transform="translate(-12.409 25.694) rotate(-16.109)" /><path d="M80.634 64.290 A1.566 1.115 0 1 0 83.766 64.290 A1.566 1.115 0 1 0 80.634 64.290 Z" fill="#ffffff" stroke="#020064" strokeLinecap="round" strokeLinejoin="round" transform="translate(-21.695 74.08) rotate(-43.413)" /><path d="M49.818 32.871 A7.458 7.458 0 1 0 64.734 32.871 A7.458 7.458 0 1 0 49.818 32.871 Z" fill="#ffffff" stroke="#020064" strokeLinecap="round" strokeLinejoin="round" /><path d="M54.182 32.871 A3.094 3.094 0 1 0 60.370 32.871 A3.094 3.094 0 1 0 54.182 32.871 Z" fill="#B0D9FF" stroke="#020064" strokeLinecap="round" strokeLinejoin="round" /><path d="M49.438,57.037a2.265,2.265,0,0,0-4.413-.726c-.586,1.422-2.251,1.862-2.962-.081a2.269,2.269,0,1,0-2.117,3.078l1.108,3.481v5.234a2.783,2.783,0,0,1-5.565,0A9.129,9.129,0,0,0,26.36,58.9H22.547a9.129,9.129,0,0,0-9.129,9.128v7.262a3.947,3.947,0,0,0,3.843,3.945v7.733a2.24,2.24,0,0,0-.61-.093,2.285,2.285,0,1,0,2.27,2.434h.03a2.279,2.279,0,1,0,3.513-2.063V81.567a1.873,1.873,0,0,1,3.746,0v5.46a2.282,2.282,0,1,0,3.1,2.129,2.285,2.285,0,1,0,2.336-2.28V68.023a6.625,6.625,0,1,0,13.25,0V62.789a26.732,26.732,0,0,0,2.021-3.506,2.294,2.294,0,0,0,.251.025A2.27,2.27,0,0,0,49.438,57.037Z" fill="#B0D9FF" stroke="#020064" strokeLinecap="round" strokeLinejoin="round" /><path d="M17.261 79.231L17.261 66.32" fill="none" stroke="#020064" strokeLinecap="round" strokeLinejoin="round" /><path d="M36.759,45.792c0,6.353-10.272,14.629-12.306,14.629S12.147,52.145,12.147,45.792,17.657,35.1,24.453,35.1,36.759,39.438,36.759,45.792Z" fill="#B0D9FF" stroke="#020064" strokeLinecap="round" strokeLinejoin="round" /><path d="M26.443,54.9a2.815,2.815,0,0,1-3.98,0" fill="none" stroke="#020064" strokeLinecap="round" strokeLinejoin="round" /><path d="M25.850 46.861 A3.771 2.99 0 1 0 33.392 46.861 A3.771 2.99 0 1 0 25.850 46.861 Z" fill="#ffffff" stroke="#020064" strokeLinecap="round" strokeLinejoin="round" transform="translate(-25.633 51.37) rotate(-62.368)" /><path d="M16.293 46.861 A2.99 3.771 0 1 0 22.273 46.861 A2.99 3.771 0 1 0 16.293 46.861 Z" fill="#ffffff" stroke="#020064" strokeLinecap="round" strokeLinejoin="round" transform="translate(-19.534 14.288) rotate(-27.632)" /><path d="M42.522,19.386c0,1.018-2.818,1.653-3.069,2.592-.26.972,1.855,2.929,1.363,3.78s-3.256.006-3.957.707.157,3.457-.706,3.956-2.808-1.623-3.78-1.363c-.939.251-1.574,3.069-2.592,3.069s-1.654-2.818-2.593-3.069c-.972-.26-2.929,1.855-3.78,1.363s-.006-3.256-.706-3.957-3.457.157-3.957-.706,1.623-2.808,1.363-3.78c-.251-.939-3.068-1.574-3.068-2.592s2.817-1.654,3.068-2.593c.26-.972-1.855-2.929-1.362-3.78S22,13.007,22.7,12.306s-.157-3.456.706-3.956,2.808,1.623,3.78,1.363c.939-.251,1.574-3.069,2.593-3.069s1.653,2.818,2.593,3.069c.972.26,2.929-1.855,3.78-1.362s0,3.255.706,3.956,3.457-.157,3.956.706-1.623,2.808-1.363,3.78C39.7,17.732,42.522,18.367,42.522,19.386Z" fill="#B0D9FF" stroke="#020064" strokeLinecap="round" strokeLinejoin="round" /><path d="M23.681 17.558 A1.413 1.413 0 1 0 26.507 17.558 A1.413 1.413 0 1 0 23.681 17.558 Z" fill="#020064" /><path d="M33.055 17.558 A1.413 1.413 0 1 0 35.881 17.558 A1.413 1.413 0 1 0 33.055 17.558 Z" fill="#020064" /><path d="M29.781,23.932a2.972,2.972,0,0,0,3-2.5.266.266,0,0,0-.086-.231.3.3,0,0,0-.247-.072,16.837,16.837,0,0,1-5.33,0,.294.294,0,0,0-.247.072.266.266,0,0,0-.087.231A2.973,2.973,0,0,0,29.781,23.932Z" fill="#ffffff" stroke="#020064" strokeLinecap="round" strokeLinejoin="round" /></g></svg>