<svg xmlns="http://www.w3.org/2000/svg" fill="none" viewBox="0 0 14 14" ><path fill="#034dca" d="M4.10963 12.9396C4.96858 13.0019 5.92183 13.0312 6.99992 13.0312C8.07801 13.0312 9.03126 13.0019 9.89022 12.9396C11.1728 12.8466 12.1758 11.8305 12.2799 10.5488C12.3304 9.92702 12.3592 9.29353 12.3592 8.64628C12.3592 7.99905 12.3304 7.36559 12.2799 6.74387C12.1758 5.46215 11.1728 4.44607 9.89022 4.35305C9.03126 4.29074 8.07801 4.26147 6.99992 4.26147C5.92183 4.26147 4.96858 4.29074 4.10963 4.35305C2.82705 4.44607 1.82401 5.46215 1.71991 6.74387C1.66942 7.36559 1.64062 7.99905 1.64062 8.64628C1.64062 9.29353 1.66942 9.92702 1.71992 10.5488C1.82402 11.8305 2.82705 12.8466 4.10963 12.9396Z" /><path fill="#034dca" d="M3.34531 2.86737C3.65543 2.28509 4.49253 2.25643 4.84188 2.81864L6.02606 4.72438H7.97391L9.15808 2.81864C9.50743 2.25643 10.3445 2.28509 10.6547 2.86737C10.878 3.28669 10.7098 3.81031 10.2719 4.02223L9.67332 4.31183C9.30046 4.49224 9.14445 4.94076 9.32486 5.31362L10.9252 5.37247C12.123 4.79294 12.6054 3.33916 11.9786 2.16225C11.1243 0.558302 8.84258 0.484318 7.88402 2.02697L6.99998 3.44968L6.11595 2.02697C5.15738 0.484318 2.87564 0.558302 2.02138 2.16225C1.39455 3.33916 1.87701 4.79294 3.07477 5.37247L4.67511 5.31362C4.85551 4.94076 4.6995 4.49224 4.32664 4.31183L3.72809 4.02223C3.29012 3.81031 3.12198 3.28669 3.34531 2.86737Z" /><path fill="#67befa" fillRule="evenodd" d="M6.37496 4.26489C5.54862 4.27429 4.79876 4.30302 4.10959 4.353C2.82702 4.44603 1.82398 5.4621 1.71988 6.74383C1.68574 7.16412 1.66152 7.58979 1.64941 8.02144H6.37496V4.26489ZM6.37496 9.27144H1.64943C1.66154 9.70298 1.68575 10.1285 1.71988 10.5487C1.82398 11.8304 2.82702 12.8465 4.10959 12.9395C4.79876 12.9895 5.54862 13.0183 6.37496 13.0277V9.27144ZM7.62496 13.0277V9.27144H12.3503C12.3382 9.70298 12.314 10.1285 12.2799 10.5487C12.1758 11.8304 11.1728 12.8465 9.89018 12.9395C9.20106 12.9895 8.45124 13.0183 7.62496 13.0277ZM7.62496 8.02144V4.26489C8.45124 4.2743 9.20106 4.30302 9.89018 4.353C11.1728 4.44603 12.1758 5.4621 12.2799 6.74383C12.314 7.16412 12.3382 7.58979 12.3504 8.02144H7.62496Z" clipRule="evenodd" /></svg>