<?xml version="1.0" encoding="UTF-8"?>
<svg id="Layer_1" data-name="Layer 1" xmlns="http://www.w3.org/2000/svg" xmlns:xlink="http://www.w3.org/1999/xlink" viewBox="0 0 700 700">
  <defs>
    <style>
      .cls-1 {
        fill: url(#linear-gradient);
      }

      .cls-2 {
        fill: url(#linear-gradient-3);
      }

      .cls-3 {
        fill: url(#linear-gradient-2);
      }
    </style>
    <linearGradient id="linear-gradient" x1="61.3" y1="366.05" x2="624.84" y2="366.05" gradientUnits="userSpaceOnUse">
      <stop offset="0" stop-color="#f9ecff"/>
      <stop offset=".58" stop-color="#faecfb"/>
      <stop offset="1" stop-color="#ffecf3"/>
    </linearGradient>
    <linearGradient id="linear-gradient-2" x1="2.27" y1="456.67" x2="157.64" y2="456.67" xlink:href="#linear-gradient"/>
    <linearGradient id="linear-gradient-3" x1="542.36" y1="256.64" x2="697.73" y2="256.64" xlink:href="#linear-gradient"/>
  </defs>
  <path class="cls-1" d="M618.43,281.35c-54.65,.17-109.31,.05-163.96,.2-4.42,.01-7.43-1.33-10.49-4.45-14.9-15.19-30.04-30.13-45.07-45.18-17.06-17.07-37.64-25.51-61.76-25.49-38.15,.04-76.29,0-114.44,.02-3.29,0-6.56,.13-9.85,.66-11.69,1.91-21.31,8.59-31.7,13.47-4.86,2.29-9.76,4.18-15.19,4.37q-10.91,.38-10.91-10.27c0-.92-.13-1.85,.02-2.75,.84-4.75-1.35-5.64-5.76-5.6-29.34,.19-58.69,.09-88.02,.08v206.87c1.46-.06,2.93-.17,4.39-.17,28.06-.01,56.12-.08,84.17,.07,3.96,.02,5.57-.8,5.32-5.11-.38-6.4-.14-12.83-.07-19.24,.02-1.49-.7-4.02,1.7-3.91,6.03,.31,12.13-1.66,17.99,2.43,14.37,10.06,30.58,15.75,47.95,18.17q7.67,1.06,7.67,8.77c-.01,35.03,.08,70.05-.13,105.08-.02,4.9,1.07,6.37,6.24,6.37,127.45-.15,254.92-.15,382.37,0,4.98,.01,5.93-1.35,5.92-6.06-.17-77.39-.19-154.78,0-232.17,.01-5.23-1.58-6.19-6.41-6.18Zm-487.87,113.11c-15.39-.28-30.78-.2-46.18-.05-3.29,.04-4.41-.78-4.41-4.26,.11-53.71,.09-107.42-.01-161.12,0-3.24,1.12-3.95,4.13-3.93,15.94,.12,31.89,.18,47.83-.04,3.8-.05,4.48,1.31,4.47,4.73-.12,26.76-.06,53.52-.06,80.29h-.02c0,26.21-.12,52.42,.11,78.63,.05,4.66-1.33,5.81-5.85,5.73Zm89.99-80.28c-2.54-1.95-3.89-1.9-5.52,.71-.87,1.38-2.09,2.55-3.13,3.83q-6.5,8.07,2.22,14.28c4.05,2.89,8.28,5.45,12.91,7.24,2.43,.96,3.32,2.37,3.29,4.94-.09,12.65-.11,25.3,0,37.95,.01,2.77-.72,3.91-3.73,3.72-14.97-.94-28.55-5.63-40.59-14.62-5.19-3.88-10.36-7.41-17.44-6.28-3.03,.48-6.24-.14-9.33,.13-3.55,.33-4.22-1.22-4.21-4.44,.08-37.76,.09-75.53-.04-113.3-.01-3.82,1.01-5.19,4.94-4.83,11.3,1.07,21.99-1.34,31.57-7.29,14.71-9.13,30.47-11.79,47.68-11.32,32.24,.86,64.52,.35,96.79,.21,19.72-.09,36.46,6.6,50.35,20.65,11.45,11.59,23.06,23.02,35.76,35.68-19.03,0-36.4,.02-53.77-.01-7.88-.01-16.62,1.98-23.39-.8-6.76-2.78-11.55-10.37-17.14-15.91q-6.01-5.93-12.15,.2-7.11,7.11,.19,14.44c19.56,19.57,39.17,39.11,58.67,58.77,6.31,6.38,7.55,14.22,3.94,21.68-3.48,7.21-10.75,11.29-18.89,10.56-5.2-.47-9.2-3.17-12.8-6.78-16.83-16.9-33.76-33.66-50.48-50.64-2.56-2.6-4-2.94-6.97-.42-22.45,19.1-45.27,19.62-68.73,1.64Zm184.54,131.64c19.09,10.62,42.8,6.71,57.8-9.52,14.63-15.83,16.67-39.87,4.91-57.97-5.13-7.89-12.08-13.7-20.62-17.59-8.6-3.93-17.68-4.66-26.9-3.42-9.22,1.23-17.07,5.84-24.78,11.03,4.08-8.85,4.86-17.72,2.14-26.65-1.14-3.75,.22-3.94,3.17-3.94,39.04,.05,78.1,.07,117.15-.04,3.17-.01,4.37,1.06,5.17,4.05,5.91,22.12,20.29,35.87,42.25,41.7,2.67,.71,3.1,1.78,3.09,4.06-.05,10.63-.11,21.26,.04,31.89,.04,2.63-.72,3.85-3.36,4.53-22.41,5.79-36.53,20.03-42.24,42.38-1,3.92-3.41,3.03-5.77,3.03-35.75,.02-71.5,.02-107.25,.02-24.01,0-48.03-.09-72.05,.08-3.83,.04-5.1-1.07-6.16-4.85-5.9-20.84-19.34-34.51-40.33-40.26-3.42-.93-4.77-2.1-4.68-5.77,.26-10.08,.18-20.16,.04-30.25-.05-2.96,.52-4.41,3.86-5.19,10.77-2.5,20.12-7.85,27.57-16.08,2.16-2.37,3.47-2.4,5.57-.07,3.07,3.4,6.43,6.54,9.69,9.76,14.48,14.36,32.19,16.44,49.51,5.84,.74-.45,1.36-1.27,2.41-.85-8.41,31.85-2.24,51.85,19.79,64.08Zm-5.83-42.63c.2-17.86,15.72-28.12,29.05-27.63,15.42,.57,27.43,12.94,27.2,28.57-.22,15.44-12.84,27.86-28.2,27.73-15.44-.13-28.22-13.32-28.05-28.66Zm206.79,98.04c.01,4.53-1.05,5.75-5.68,5.75-115.16-.14-230.33-.14-345.5,0-4.54,0-5.77-1.09-5.76-5.7,.18-49.89,.15-99.76,.01-149.65-.01-4.22,.54-6.01,5.52-5.95,11.73,.15,22.91-2.77,33.03-8.85,3.07-1.85,4.74-1.32,6.9,1.07,3.07,3.4,6.24,6.75,9.73,9.7,3.21,2.7,2.36,4.57-.15,7.03-8.34,8.17-18.32,12.02-29.89,11.3-4.86-.29-6.51,.93-6.42,6.16,.33,20.53,.09,41.07,.14,61.61,.01,8.59-.94,7.27,7.21,7.35,19.55,.19,34.43,11.49,38.67,29.46,1.06,4.51,.94,9.12,.77,13.69-.13,3.19,1.05,4.37,4.11,3.94,.54-.07,1.1-.01,1.65-.01,71.34,0,142.67-.04,214.01,.11,4.42,0,6.12-.83,5.81-5.6-1-14.65,4.81-26.54,16.38-35.28,6.54-4.93,14.6-6.06,22.65-6.27,7.98-.19,7.98-.12,7.98-8.28,0-19.26,0-38.51-.01-57.77q0-8.93-8.83-9.03c-16.51-.18-30.24-9.5-35.8-24.39-2.08-5.57-2.95-11.41-2.41-17.3,.41-4.48-1.3-5.44-5.52-5.43-47.31,.14-94.63-.11-141.94,.3-7.85,.06-13.59-1.82-18.51-7.87-2.94-3.61-6.91-6.38-10.43-9.53,.4-.53,.8-1.06,1.2-1.59h44.51c63.46,0,126.91,.07,190.37-.13,5.17-.01,6.24,1.5,6.23,6.4-.17,64.92-.17,129.84-.02,194.76Z"/>
  <path class="cls-3" d="M148.57,496.89c-.75-.08-75.66-8.95-119.8-95.15-2.05-4-6.49-6.18-10.9-5.34-4.42,.83-7.76,4.47-8.21,8.94l-7.34,72.81c-.56,5.57,3.5,10.54,9.07,11.1,5.55,.56,10.54-3.5,11.1-9.07l4.28-42.44c22.99,32.94,49.7,51.88,69.83,62.43,27.44,14.37,48.93,16.78,49.83,16.88,.36,.04,.72,.06,1.08,.06,5.12,0,9.52-3.87,10.07-9.07,.59-5.57-3.45-10.56-9.01-11.15Z"/>
  <path class="cls-2" d="M688.61,224.05c-5.56-.56-10.54,3.5-11.1,9.07l-4.28,42.44c-22.99-32.94-49.7-51.88-69.84-62.43-27.44-14.38-48.93-16.78-49.83-16.88-5.56-.58-10.56,3.45-11.15,9.01-.59,5.57,3.45,10.56,9.01,11.15,.75,.08,75.66,8.95,119.8,95.15,1.76,3.43,5.27,5.52,9.02,5.52,.62,0,1.25-.06,1.88-.18,4.42-.83,7.76-4.47,8.21-8.94l7.34-72.81c.56-5.57-3.5-10.54-9.07-11.1Z"/>
</svg>