<?xml version="1.0" encoding="UTF-8"?>
<svg id="Layer_1" data-name="Layer 1" xmlns="http://www.w3.org/2000/svg" xmlns:xlink="http://www.w3.org/1999/xlink" viewBox="0 0 700 700">
  <defs>
    <style>
      .cls-1 {
        fill: url(#linear-gradient);
      }

      .cls-2 {
        fill: url(#linear-gradient-3);
      }

      .cls-3 {
        fill: url(#linear-gradient-2);
      }
    </style>
    <linearGradient id="linear-gradient" x1="131.66" y1="353" x2="568.34" y2="353" gradientUnits="userSpaceOnUse">
      <stop offset="0" stop-color="#f9ecff"/>
      <stop offset=".58" stop-color="#faecfb"/>
      <stop offset="1" stop-color="#ffecf3"/>
    </linearGradient>
    <linearGradient id="linear-gradient-2" x1="248.72" y1="353.2" x2="451.21" y2="353.2" xlink:href="#linear-gradient"/>
    <linearGradient id="linear-gradient-3" x1="306.76" y1="323.5" x2="453.04" y2="323.5" xlink:href="#linear-gradient"/>
  </defs>
  <path class="cls-1" d="M552.36,202.84c-41.17-16.99-82.43-33.81-123.26-51.58-25.78-11.21-50.9-23.97-76.31-36.03h-5.58c-18.8,9.05-37.32,18.77-56.46,27.05-47.83,20.68-95.92,40.77-143.98,60.93-5.09,2.14-8.21,5.07-8.87,10.68-.77,6.45-2.01,12.84-2.82,19.29-6.05,48.42-4.48,96.59,7.79,143.89,28.02,107.9,94.62,179.72,201.72,212.86,3.06,.94,6.87,1.17,9.9,.26,91.89-27.45,156.11-85.53,190.68-175.08,25.04-64.89,28.17-132.08,17.11-200.3-1.03-6.35-4.17-9.6-9.92-11.97Zm-4.66,95.31c-1.55,38.3-7.84,75.72-21.91,111.53-31.83,81.03-89.69,134.16-172.57,160.21-2.02,.65-4.62,.56-6.66-.09-86.61-27.41-145.38-83.88-175.82-169.48-13.57-38.17-18.67-77.81-19.82-118.28,1.8-19.25,3.64-38.5,5.36-57.75,.24-2.67,1.32-4.01,3.83-4.97,63.39-24.4,125.54-51.67,186.6-81.4,1.94-.94,5.19-.72,7.19,.25,60.81,29.58,122.69,56.67,185.75,81.06,2.41,.94,3.63,2.04,4.04,4.81,3.65,24.59,5.02,49.29,4.01,74.11Z"/>
  <path class="cls-3" d="M439.81,341.3c-6.77-.36-11.99,4.78-12.61,12.52-.05,.59-.06,1.19-.08,1.79l-.02,.63c-.71,20.07-9.09,38.78-23.59,52.69-14.49,13.91-33.56,21.53-53.67,21.45-27.84-.11-52.79-14.48-66.73-38.45-13.82-23.76-14-52.28-.47-76.27,14.04-24.9,36.04-38.22,65.41-39.58,8.67-.4,13.98-5.11,13.86-12.28-.05-3.25-1.23-6.07-3.42-8.15-2.67-2.54-6.59-3.79-11.34-3.62-28.95,1-56.2,14.22-74.77,36.27-18.31,21.74-26.6,50.29-22.76,78.34,4.14,30.2,21.34,56.68,47.2,72.64,16.2,10,34.57,15.11,53.13,15.11,11.06,0,22.19-1.81,32.96-5.49,39.84-13.59,67.92-52.23,68.28-93.98,.07-7.78-4.51-13.26-11.4-13.63Z"/>
  <path class="cls-2" d="M448.06,263.17c-2.98-2.47-6.42-3.58-9.96-3.22-4.07,.42-7.9,2.73-11.08,6.7-7.93,9.89-15.83,19.79-23.74,29.69l-24.58,30.75c-6.62,8.27-13.28,16.6-20.04,25.05l-4.18-4.2c-7.84-7.88-15.25-15.32-22.83-22.86-3.34-3.33-7.42-5.13-11.45-5.08-3.57,.04-6.96,1.56-9.54,4.25-5.62,5.86-5.14,14.1,1.21,20.5,12.18,12.23,24.57,24.62,36.81,36.81,3.71,3.69,7.52,5.55,11.33,5.55,.22,0,.44,0,.66-.02,4.04-.23,7.84-2.54,11.3-6.87,26.67-33.26,53.68-67.05,76.91-96.12,5.83-7.3,5.5-15.72-.82-20.94Z"/>
</svg>