<svg xmlns="http://www.w3.org/2000/svg" fill="none" viewBox="0 0 14 14" ><path fill="#67befa" d="M6.9946 13.7178C11.2906 13.7178 13.7071 11.3013 13.7071 7.00534C13.7071 2.65667 11.0379 0.292847 6.9946 0.292847C2.6986 0.292847 0.282104 2.70934 0.282104 7.00534C0.282104 11.3013 2.6986 13.7178 6.9946 13.7178Z" /><path fill="#034dca" fillRule="evenodd" d="M1.75 7.00528C1.75 5.22508 2.24836 3.9402 3.08891 3.09965C3.92946 2.2591 5.21434 1.76074 6.99454 1.76074C7.40875 1.76074 7.74454 1.42496 7.74454 1.01074C7.74454 0.596529 7.40875 0.260742 6.99454 0.260742C4.93824 0.260742 3.22584 0.841399 2.02825 2.03899C0.830657 3.23659 0.25 4.94898 0.25 7.00528C0.25 9.06159 0.830657 10.774 2.02825 11.9716C3.22584 13.1692 4.93824 13.7498 6.99454 13.7498C9.05085 13.7498 10.7632 13.1692 11.9608 11.9716C13.1584 10.774 13.7391 9.06159 13.7391 7.00528C13.7391 6.59107 13.4033 6.25528 12.9891 6.25528C12.5749 6.25528 12.2391 6.59107 12.2391 7.00528C12.2391 8.78548 11.7407 10.0704 10.9002 10.9109C10.0596 11.7515 8.77474 12.2498 6.99454 12.2498C5.21434 12.2498 3.92946 11.7515 3.08891 10.9109C2.24836 10.0704 1.75 8.78548 1.75 7.00528ZM6.20147 4.71919C6.60541 4.62752 6.85855 4.22574 6.76688 3.8218C6.6752 3.41786 6.27342 3.16472 5.86948 3.25639C5.01911 3.44939 4.31149 3.88251 3.82548 4.55885C3.34559 5.22668 3.12744 6.06742 3.12744 7.00472C3.12744 8.14026 3.44913 9.13331 4.15757 9.84175C4.86601 10.5502 5.85906 10.8719 6.9946 10.8719C7.97801 10.8719 8.85523 10.6315 9.53674 10.1019C10.2259 9.56632 10.6392 8.79354 10.7924 7.87817C10.8608 7.46964 10.5851 7.08303 10.1765 7.01464C9.768 6.94626 9.38139 7.222 9.313 7.63053C9.21109 8.23936 8.96006 8.65034 8.6163 8.91749C8.26491 9.19058 7.74065 9.37188 6.9946 9.37188C6.13516 9.37188 5.56963 9.13249 5.21823 8.78109C4.86684 8.4297 4.62744 7.86416 4.62744 7.00472C4.62744 6.29351 4.79242 5.78372 5.0436 5.43418C5.28866 5.09315 5.66005 4.84207 6.20147 4.71919Z" clipRule="evenodd" /><path fill="#034dca" fillRule="evenodd" d="M11.4431 0.852785C11.3915 0.685266 11.2558 0.557039 11.0857 0.514837C10.9156 0.472635 10.7357 0.522625 10.6118 0.646585L9.09009 2.16832C8.47406 2.78437 8.2259 3.67329 8.42543 4.51333L6.4643 6.47445C6.17141 6.76734 6.17141 7.24222 6.4643 7.53511C6.75719 7.82801 7.23206 7.82801 7.52496 7.53511L9.48564 5.57444C10.326 5.77447 11.2155 5.52635 11.8319 4.90999L13.3535 3.38829C13.4775 3.26434 13.5274 3.08452 13.4852 2.91437C13.443 2.74423 13.3148 2.60861 13.1473 2.55695L11.8448 2.15528L11.4431 0.852785Z" clipRule="evenodd" /></svg>