<svg xmlns="http://www.w3.org/2000/svg" fill="none" viewBox="0 0 14 14" ><path fill="#67befa" fillRule="evenodd" d="M7.00016 0.25C4.07469 0.25 1.70312 2.62156 1.70312 5.54704C1.70312 7.30663 2.50332 8.93953 3.42637 10.2447C4.35384 11.5562 5.44122 12.5874 6.09511 13.154C6.61819 13.6073 7.38213 13.6073 7.90521 13.154C8.5591 12.5874 9.64648 11.5562 10.574 10.2448C11.497 8.93953 12.2972 7.30663 12.2972 5.54704C12.2972 2.62156 9.92563 0.25 7.00016 0.25Z" clipRule="evenodd" /><path fill="#034dca" d="M6.99999 4.7169C5.67085 3.08606 4.26749 4.24484 4.24902 5.49398C4.24902 7.3536 6.47403 8.87997 6.99999 8.87997C7.52594 8.87997 9.75095 7.3536 9.75095 5.49398C9.73248 4.24484 8.32913 3.08606 6.99999 4.7169Z" /></svg>