<?xml version="1.0" encoding="UTF-8"?>
<svg id="Layer_1" data-name="Layer 1" xmlns="http://www.w3.org/2000/svg" xmlns:xlink="http://www.w3.org/1999/xlink" viewBox="0 0 700 700">
  <defs>
    <style>
      .cls-1 {
        fill: url(#linear-gradient);
      }

      .cls-2 {
        fill: url(#linear-gradient-3);
      }

      .cls-3 {
        fill: url(#linear-gradient-4);
      }

      .cls-4 {
        fill: url(#linear-gradient-2);
      }
    </style>
    <linearGradient id="linear-gradient" x1="81.54" y1="315.33" x2="439.3" y2="315.33" gradientUnits="userSpaceOnUse">
      <stop offset="0" stop-color="#f9ecff"/>
      <stop offset=".58" stop-color="#faecfb"/>
      <stop offset="1" stop-color="#ffecf3"/>
    </linearGradient>
    <linearGradient id="linear-gradient-2" x1="452.65" y1="491.59" x2="572.73" y2="491.59" xlink:href="#linear-gradient"/>
    <linearGradient id="linear-gradient-3" x1="125.11" y1="491.59" x2="245.2" y2="491.59" xlink:href="#linear-gradient"/>
    <linearGradient id="linear-gradient-4" x1="476.09" y1="349.4" x2="618.46" y2="349.4" xlink:href="#linear-gradient"/>
  </defs>
  <path class="cls-1" d="M118.2,189.82c-23.64,23.06-36.66,54.09-36.66,87.35v166.51c0,7.09,5.75,12.84,12.84,12.84s12.84-5.75,12.84-12.84v-166.51c0-26.29,10.27-50.78,28.91-68.97,18.6-18.15,43.53-28.15,70.18-28.15h207.3V450.6h-117.56c-7.09,0-12.84,5.75-12.84,12.84s5.75,12.84,12.84,12.84h143.25V154.37H206.32c-33.39,0-64.69,12.59-88.12,35.45Z"/>
  <path class="cls-4" d="M512.69,431.54c-33.11,0-60.04,26.93-60.04,60.04s26.93,60.04,60.04,60.04,60.04-26.93,60.04-60.04-26.93-60.04-60.04-60.04Zm0,94.4c-18.94,0-34.35-15.41-34.35-34.35s15.41-34.35,34.35-34.35,34.35,15.41,34.35,34.35-15.41,34.35-34.35,34.35Z"/>
  <path class="cls-2" d="M185.15,431.54c-33.11,0-60.04,26.93-60.04,60.04s26.93,60.04,60.04,60.04,60.04-26.93,60.04-60.04-26.93-60.04-60.04-60.04Zm0,94.4c-18.94,0-34.35-15.41-34.35-34.35s15.41-34.35,34.35-34.35,34.35,15.41,34.35,34.35-15.41,34.35-34.35,34.35Z"/>
  <path class="cls-3" d="M528.01,226.01h-39.08c-7.09,0-12.84,5.75-12.84,12.84s5.75,12.84,12.84,12.84h39.08c35.71,0,64.76,29.05,64.76,64.75v29.98h-67.24v-43.11c0-7.09-5.75-12.84-12.84-12.84s-12.84,5.75-12.84,12.84v44.1c0,13.62,11.08,24.69,24.69,24.69h68.23v87.82c0,7.09,5.75,12.84,12.84,12.84s12.84-5.75,12.84-12.84v-143.49c0-49.87-40.57-90.44-90.44-90.44Z"/>
</svg>