<svg viewBox="0 0 400 400" xmlns="http://www.w3.org/2000/svg" ><g transform="matrix(4,0,0,4,0,0)"><path d="M10.000 50.637 A40.000 40.000 0 1 0 90.000 50.637 A40.000 40.000 0 1 0 10.000 50.637 Z" fill="#D9EDFF" /><path d="M37.739 83.976 A14 1.5 0 1 0 65.739 83.976 A14 1.5 0 1 0 37.739 83.976 Z" fill="#B0D9FF" /><path d="M34.258,73.108h2.684a1.342,1.342,0,0,0,1.342-1.342V56.333a1.342,1.342,0,0,0-1.342-1.342H34.258Z" fill="#ffffff" stroke="#020064" strokeLinecap="round" strokeLinejoin="round" /><path d="M53.718,52.978c.5-5.014,1.165-15.769-3.02-15.769a3.019,3.019,0,0,0-3.019,3.019v1.007c0,7.381-3.2,15.1-9.4,15.1l0,15.433h.792c3.87,0,5.7,2.684,12.634,2.684H63.448a2.684,2.684,0,0,0,0-5.368H64.79a2.684,2.684,0,0,0,0-5.368h1.342a2.684,2.684,0,0,0,0-5.368h1.342a2.684,2.684,0,0,0,0-5.368Z" fill="#ffffff" /><path d="M51.034 52.978L53.718 52.978" fill="none" stroke="#020064" strokeLinecap="round" strokeLinejoin="round" /><path d="M63.448 69.082L62.106 69.082" fill="none" stroke="#020064" strokeLinecap="round" strokeLinejoin="round" /><path d="M64.79 63.714L63.448 63.714" fill="none" stroke="#020064" strokeLinecap="round" strokeLinejoin="round" /><path d="M66.132 58.346L64.79 58.346" fill="none" stroke="#020064" strokeLinecap="round" strokeLinejoin="round" /><path d="M53.718,52.978c.5-5.014,1.165-15.769-3.02-15.769a3.019,3.019,0,0,0-3.019,3.019v1.007c0,7.381-3.2,15.1-9.4,15.1l0,15.433h.792c3.87,0,5.7,2.684,12.634,2.684H63.448a2.684,2.684,0,0,0,0-5.368H64.79a2.684,2.684,0,0,0,0-5.368h1.342a2.684,2.684,0,0,0,0-5.368h1.342a2.684,2.684,0,0,0,0-5.368Z" fill="none" stroke="#020064" strokeLinecap="round" strokeLinejoin="round" /><path d="M24.864 53.649 L34.258 53.649 L34.258 74.451 L24.864 74.451 Z" fill="#B0D9FF" /><path d="M24.864 53.649 L34.258 53.649 L34.258 74.451 L24.864 74.451 Z" fill="none" stroke="#020064" strokeLinecap="round" strokeLinejoin="round" /><path d="M51.163,10l2.054,4.161a1.128,1.128,0,0,0,.855.621l4.593.668a1.135,1.135,0,0,1,.629,1.936l-3.324,3.24a1.139,1.139,0,0,0-.326,1l.784,4.576a1.134,1.134,0,0,1-1.647,1.2L50.673,25.24a1.135,1.135,0,0,0-1.057,0L45.508,27.4a1.134,1.134,0,0,1-1.647-1.2l.784-4.576a1.136,1.136,0,0,0-.326-1L41,17.382a1.135,1.135,0,0,1,.629-1.936l4.593-.668a1.128,1.128,0,0,0,.855-.621L49.127,10A1.135,1.135,0,0,1,51.163,10Z" fill="#B0D9FF" /><path d="M51.163,10l2.054,4.161a1.128,1.128,0,0,0,.855.621l4.593.668a1.135,1.135,0,0,1,.629,1.936l-3.324,3.24a1.139,1.139,0,0,0-.326,1l.784,4.576a1.134,1.134,0,0,1-1.647,1.2L50.673,25.24a1.135,1.135,0,0,0-1.057,0L45.508,27.4a1.134,1.134,0,0,1-1.647-1.2l.784-4.576a1.136,1.136,0,0,0-.326-1L41,17.382a1.135,1.135,0,0,1,.629-1.936l4.593-.668a1.128,1.128,0,0,0,.855-.621L49.127,10A1.135,1.135,0,0,1,51.163,10Z" fill="none" stroke="#020064" strokeLinecap="round" strokeLinejoin="round" /><path d="M27.471,18.977l3.246,2.045a.935.935,0,0,0,.871.068l3.526-1.515a.938.938,0,0,1,1.28,1.093l-.942,3.72a.942.942,0,0,0,.2.849l2.531,2.885a.939.939,0,0,1-.644,1.556l-3.828.253a.94.94,0,0,0-.745.457l-1.962,3.3a.938.938,0,0,1-1.678-.132l-1.425-3.563a.935.935,0,0,0-.664-.567L23.5,28.577a.938.938,0,0,1-.393-1.636l2.948-2.456a.934.934,0,0,0,.334-.807l-.351-3.821A.938.938,0,0,1,27.471,18.977Z" fill="#B0D9FF" /><path d="M27.471,18.977l3.246,2.045a.935.935,0,0,0,.871.068l3.526-1.515a.938.938,0,0,1,1.28,1.093l-.942,3.72a.942.942,0,0,0,.2.849l2.531,2.885a.939.939,0,0,1-.644,1.556l-3.828.253a.94.94,0,0,0-.745.457l-1.962,3.3a.938.938,0,0,1-1.678-.132l-1.425-3.563a.935.935,0,0,0-.664-.567L23.5,28.577a.938.938,0,0,1-.393-1.636l2.948-2.456a.934.934,0,0,0,.334-.807l-.351-3.821A.938.938,0,0,1,27.471,18.977Z" fill="none" stroke="#020064" strokeLinecap="round" strokeLinejoin="round" /><path d="M14.772,37.65l2.94.15a.719.719,0,0,0,.608-.282l1.79-2.337a.72.72,0,0,1,1.267.251l.766,2.843a.722.722,0,0,0,.455.491l2.777.981a.72.72,0,0,1,.153,1.282l-2.467,1.607a.723.723,0,0,0-.327.585l-.074,2.943a.72.72,0,0,1-1.172.542L19.2,44.857a.719.719,0,0,0-.658-.131l-2.822.839a.719.719,0,0,1-.877-.947l1.05-2.75a.716.716,0,0,0-.079-.666l-1.669-2.425A.72.72,0,0,1,14.772,37.65Z" fill="#B0D9FF" /><path d="M14.772,37.65l2.94.15a.719.719,0,0,0,.608-.282l1.79-2.337a.72.72,0,0,1,1.267.251l.766,2.843a.722.722,0,0,0,.455.491l2.777.981a.72.72,0,0,1,.153,1.282l-2.467,1.607a.723.723,0,0,0-.327.585l-.074,2.943a.72.72,0,0,1-1.172.542L19.2,44.857a.719.719,0,0,0-.658-.131l-2.822.839a.719.719,0,0,1-.877-.947l1.05-2.75a.716.716,0,0,0-.079-.666l-1.669-2.425A.72.72,0,0,1,14.772,37.65Z" fill="none" stroke="#020064" strokeLinecap="round" strokeLinejoin="round" /><path d="M74.606,19.857a.938.938,0,0,0-1.435-.88l-3.246,2.045a.935.935,0,0,1-.871.068l-3.526-1.515a.939.939,0,0,0-1.28,1.093l.942,3.72a.939.939,0,0,1-.2.849l-2.53,2.885a.939.939,0,0,0,.643,1.556l3.829.253a.938.938,0,0,1,.744.457l1.962,3.3a.938.938,0,0,0,1.678-.132l1.425-3.563a.936.936,0,0,1,.664-.567l3.743-.847a.938.938,0,0,0,.394-1.636l-2.949-2.456a.936.936,0,0,1-.334-.807Z" fill="#B0D9FF" /><path d="M74.606,19.857a.938.938,0,0,0-1.435-.88l-3.246,2.045a.935.935,0,0,1-.871.068l-3.526-1.515a.938.938,0,0,0-1.28,1.092l.942,3.721a.939.939,0,0,1-.2.849l-2.53,2.885a.939.939,0,0,0,.643,1.556l3.829.253a.938.938,0,0,1,.744.457l1.962,3.3a.938.938,0,0,0,1.678-.132l1.425-3.563a.936.936,0,0,1,.664-.567l3.743-.847a.938.938,0,0,0,.394-1.636l-2.949-2.456a.936.936,0,0,1-.334-.807Z" fill="none" stroke="#020064" strokeLinecap="round" strokeLinejoin="round" /><path d="M86.5,38.777a.719.719,0,0,0-.629-1.127l-2.94.15a.716.716,0,0,1-.608-.282l-1.791-2.337a.72.72,0,0,0-1.267.251L78.5,38.275a.722.722,0,0,1-.455.491l-2.776.981a.719.719,0,0,0-.153,1.282l2.466,1.607a.718.718,0,0,1,.327.585l.075,2.943a.72.72,0,0,0,1.172.542l2.291-1.849a.718.718,0,0,1,.657-.131l2.822.839a.72.72,0,0,0,.878-.947l-1.051-2.75a.721.721,0,0,1,.079-.666Z" fill="#B0D9FF" /><path d="M86.5,38.777a.719.719,0,0,0-.629-1.127l-2.94.15a.716.716,0,0,1-.608-.282l-1.791-2.337a.72.72,0,0,0-1.266.251L78.5,38.275a.722.722,0,0,1-.455.491l-2.776.981a.719.719,0,0,0-.153,1.282l2.466,1.607a.718.718,0,0,1,.327.585l.075,2.943a.72.72,0,0,0,1.172.542l2.291-1.849a.718.718,0,0,1,.657-.131l2.823.839a.72.72,0,0,0,.877-.947l-1.051-2.75a.721.721,0,0,1,.079-.666Z" fill="none" stroke="#020064" strokeLinecap="round" strokeLinejoin="round" /></g></svg>