<?xml version="1.0" encoding="UTF-8"?>
<svg id="Layer_1" data-name="Layer 1" xmlns="http://www.w3.org/2000/svg" xmlns:xlink="http://www.w3.org/1999/xlink" viewBox="0 0 700 700">
  <defs>
    <style>
      .cls-1 {
        fill: url(#linear-gradient);
      }

      .cls-2 {
        fill: url(#linear-gradient-3);
      }

      .cls-3 {
        fill: url(#linear-gradient-4);
      }

      .cls-4 {
        fill: url(#linear-gradient-2);
      }
    </style>
    <linearGradient id="linear-gradient" x1="121.21" y1="380.74" x2="578.79" y2="380.74" gradientUnits="userSpaceOnUse">
      <stop offset="0" stop-color="#f9ecff"/>
      <stop offset=".58" stop-color="#faecfb"/>
      <stop offset="1" stop-color="#ffecf3"/>
    </linearGradient>
    <linearGradient id="linear-gradient-2" x1="348.89" y1="120.6" x2="404.4" y2="120.6" xlink:href="#linear-gradient"/>
    <linearGradient id="linear-gradient-3" x1="396.33" y1="248.27" x2="451.8" y2="248.27" xlink:href="#linear-gradient"/>
    <linearGradient id="linear-gradient-4" x1="495.73" y1="177.04" x2="551.07" y2="177.04" xlink:href="#linear-gradient"/>
  </defs>
  <path class="cls-1" d="M563.41,350.61c-7.72-2.43-14.62-.45-20.98,4.29-13.22,9.84-27.54,17.71-43.01,23.4-1.7,.63-4.81,.06-6.12-1.16-18.98-17.89-41.52-26.34-67.49-26.07-7.62,.07-15.23,.01-22.77,.01-.36-1.18-.6-1.87-.78-2.58-7.77-30-33.18-43.25-62.41-32.48-11.86,4.38-23.71,8.78-35.5,13.37-3,1.16-4.85,.94-7.08-1.67-27.27-31.97-42.46-68.76-44.5-110.81-1.31-27,3.36-52.94,13.29-78.1,1.93-4.9,2.73-11.16,1.54-16.19-3.55-15.05-19.86-20.7-33.83-12.05-54.67,33.8-90.41,81.73-105.88,144.19-3.61,14.55-4.73,29.72-6.6,44.65-.69,5.48,2.99,9.41,7.78,9.72,4.84,.33,8.29-3.08,8.83-8.72,.07-.73,.09-1.48,.15-2.23,3.87-56.66,25.64-105.22,66.9-144.36,11.26-10.69,24.6-19.19,37.02-28.63,2.45-1.87,5.75-3.64,7.87-.54,1.33,1.97,.87,5.36,.72,8.08-.09,1.58-1.18,3.09-1.78,4.66-6.77,17.67-11.26,35.93-12.4,54.79-4.2,69.08,20.37,126.06,73.34,170.56,12.1,10.17,18.34,22.3,18.23,38.25-.3,39.48-.1,78.98-.1,118.48v5.66c-1.25,0-1.97,.07-2.67-.01-85.62-11.33-159.51-77.12-180.53-160.88-2.03-8.11-3.24-16.41-4.82-24.63-1.06-5.59-4.61-8.54-9.62-7.92-4.72,.58-7.38,4.11-7.03,9.63,.15,2.23,.6,4.42,1,6.62,15.86,84.44,63.9,143.33,141.9,178.18,19.43,8.68,40.1,13.53,61.78,16.22v6.26c0,26.27-.01,52.54,.03,78.81,0,2.6,.1,5.23,.57,7.77,1.87,10.48,9.18,16.02,18.32,19.85h53.66c.82-.34,1.63-.84,2.49-.99,27.4-4.78,48.55-24.97,54.03-52.07,1.27-6.3,1.37-12.84,2.08-19.83,3.32,0,6.63,.12,9.93-.01,18.31-.72,33.02-8.18,43.35-23.55,3.43-5.12,2.82-9.9-1.31-12.81-4.08-2.87-8.99-1.76-12.38,3.29-9.62,14.31-23.54,17.55-40.19,15.99v-6.17c0-20.12,0-40.23-.01-60.36-.01-1.84,.04-3.78-.45-5.53-1.18-4.32-4.29-6.66-8.69-6.26-4.36,.39-7.11,3.05-7.53,7.62-.16,1.66-.09,3.35-.09,5.02,0,29.43,.13,58.88-.04,88.32-.18,29.11-21.55,50.36-50.57,50.57-11.36,.07-22.73,.02-34.09,.02-10.48,0-12.34-1.85-12.34-12.34,0-74.52-.22-149.04,.13-223.56,.1-22.16-7.75-39.78-25.3-53.21-1.96-1.49-3.69-3.29-5.97-5.35,11.54-4.33,22.15-8.36,32.76-12.32,21.68-8.06,39.8,4.42,39.87,27.55,.07,23.28,0,46.58,.04,69.86,0,2.21,.06,4.53,.7,6.6,1.24,4.06,4.41,6.09,8.54,5.65,4.08-.45,6.82-2.88,7.33-7.2,.21-1.66,.15-3.36,.15-5.03,.01-18.25,0-36.51,.03-54.76,0-1.97,.16-3.96,.31-7.47,15.62,1.33,31,.79,45.43,4.23,33.17,7.87,55.14,37.63,55.42,72.37,.18,22.73,.02,45.46,.06,68.19,.02,2.21-.12,4.64,.73,6.59,1.63,3.76,4.88,5.7,9.06,4.85,4.67-.97,6.85-4.35,6.9-8.93,.1-11.74-.13-23.48,.19-35.21,.07-2.66,1.37-5.67,3.03-7.81,4.69-6,10.1-11.45,14.8-17.47,17.37-22.21,30.27-46.8,38.59-73.77,4.11-13.34-1.58-25.13-14.05-29.06Zm-2.28,24.75c-8.24,26.57-21.28,50.61-39.63,72.1-.33-19.06-4.35-36.95-14.75-53.4,1.27-.69,2.34-1.22,3.39-1.82,13.92-7.8,27.76-15.71,41.78-23.31,2.28-1.22,5.33-1.06,8.02-1.52,.45,2.66,1.91,5.64,1.19,7.96Z"/>
  <path class="cls-4" d="M359.6,100.28c4.3,.05,8.61,.04,13.25,.03,1.72,0,3.48,0,5.31-.01-.17,.3-.33,.59-.48,.86-.71,1.27-1.28,2.3-1.91,3.3l-3.42,5.45c-5.97,9.52-12.14,19.37-18.29,29.01-3.28,5.17-3.73,9.62-1.41,14.01,3.06,5.79,8.58,6.56,12.63,6.56,.13,0,.26,0,.39,0,5.59-.08,11.28-.06,16.78-.05,3.33,0,6.67,.01,10,0,7.4-.03,11.86-3.47,11.94-9.19,.03-2.44-.76-4.57-2.3-6.14-2.02-2.06-5.28-3.16-9.44-3.19-4.06-.02-8.12-.01-12.45,0h-5.47c2.51-3.99,4.98-7.91,7.42-11.76,6.1-9.65,11.86-18.77,17.51-28.08,2.68-4.4,3-9.14,.87-13-2.15-3.9-6.38-6.19-11.6-6.27-10.16-.17-20.2-.1-29.62-.01-3.43,.03-6.22,1.05-8.07,2.94-1.59,1.63-2.41,3.85-2.38,6.43,.08,5.62,4.09,9.03,10.71,9.11Z"/>
  <path class="cls-2" d="M396.33,218.79c0,5.26,4.17,9.03,10.15,9.15,4.57,.11,9.21,.08,14.12,.07,1.67,0,3.38-.02,5.16-.02-.22,.39-.43,.76-.63,1.12-.66,1.19-1.21,2.16-1.79,3.09l-4.24,6.78c-5.68,9.1-11.56,18.52-17.43,27.71-2.3,3.6-4.55,8.44-1.49,13.98,2.39,4.37,6.36,6.49,12.13,6.49,.12,0,.23,0,.35,0,5.46-.09,11.02-.08,16.4-.06,3.84,0,7.68,.02,11.52,0,7.18-.03,11.16-3.26,11.21-9.1,.05-5.8-4.07-9.31-11.02-9.38-4.3-.05-8.58-.04-13.14-.03h-4.96c.18-.32,.35-.64,.52-.94,.67-1.24,1.21-2.25,1.82-3.21,2.43-3.88,4.87-7.75,7.31-11.62,4.92-7.8,10.01-15.86,14.88-23.89,2.73-4.5,3.08-9.29,.98-13.14-2.1-3.83-6.29-6.1-11.5-6.23-10.8-.27-21.33-.16-30.2-.02-5.96,.09-10.12,3.9-10.12,9.26Z"/>
  <path class="cls-3" d="M503.28,156.41c2.01,.37,4.07,.38,6.06,.38h.77c3.6,.03,7.21,.03,11.17,.02h3.64c-.21,.37-.42,.73-.61,1.07-.85,1.5-1.5,2.66-2.22,3.79-2.43,3.88-4.87,7.76-7.31,11.64-4.81,7.63-9.78,15.53-14.56,23.36-2.54,4.16-2.84,9.2-.8,13.15,1.68,3.24,4.71,5.24,8.31,5.48,5.49,.37,11.1,.49,16.56,.49,6.82,0,13.4-.2,19.2-.37,4.38-.13,7.35-3.45,7.56-8.46,.2-4.78-2.26-8.09-6.75-9.1-2.43-.53-4.98-.55-7.44-.56h-1.59c-3.29-.08-6.58-.07-10.21-.05h-3.27s.81-1.36,.81-1.36c.87-1.47,1.53-2.59,2.22-3.69,2.29-3.66,4.6-7.32,6.9-10.97,4.85-7.69,9.87-15.65,14.68-23.55,2.63-4.32,2.99-9.47,.94-13.42-1.69-3.26-4.81-5.27-8.56-5.52-11.88-.77-23.74-.46-35.2-.15-4.72,.13-7.81,3.57-7.86,8.78-.07,4.87,2.69,8.16,7.54,9.03Z"/>
</svg>