<svg xmlns="http://www.w3.org/2000/svg" fill="none" viewBox="0 0 14 14" ><path fill="#67befa" fillRule="evenodd" d="M12.5072 1.65894C12.5063 1.65844 12.5054 1.65795 12.1354 2.3103L12.5054 1.65795C12.4842 1.64591 12.4624 1.63492 12.4401 1.625L12.1354 2.3103C12.4401 1.625 12.4401 1.62497 12.44 1.62493L12.4397 1.62482L12.439 1.6245L12.4366 1.62345L12.4282 1.61972L12.3969 1.60599C12.3698 1.59414 12.3305 1.57703 12.2802 1.5554C12.1795 1.51216 12.0347 1.4508 11.856 1.37735C11.4991 1.23067 11.0044 1.03473 10.4543 0.838334C9.39386 0.459796 7.99371 0.0290527 6.99994 0.0290527C6.00617 0.0290527 4.60602 0.459796 3.54562 0.838334C2.99544 1.03473 2.50075 1.23067 2.14386 1.37735C1.96516 1.4508 1.82038 1.51216 1.71972 1.5554C1.66938 1.57703 1.63003 1.59414 1.60295 1.60599L1.57169 1.61972L1.56324 1.62345L1.56087 1.6245L1.56015 1.62482L1.55991 1.62493C1.55982 1.62497 1.55975 1.625 1.86448 2.3103L1.55975 1.625C1.53745 1.63492 1.51565 1.64591 1.49443 1.65795L1.86448 2.3103C1.49443 1.65795 1.49357 1.65844 1.4927 1.65894L1.49095 1.65994L1.48737 1.66201L1.47995 1.66638L1.46403 1.67609C1.45295 1.68301 1.44098 1.69082 1.42818 1.6996C1.40257 1.71717 1.37378 1.73855 1.34238 1.76435C1.27946 1.81607 1.207 1.88481 1.12929 1.97506C0.973523 2.15597 0.800918 2.41834 0.640512 2.79526C0.321706 3.54439 0.0467529 4.75552 0.0467529 6.72248C0.0467529 9.1722 1.20867 10.8626 2.62563 11.9868C4.01934 13.0925 5.66882 13.6629 6.74681 13.9464C6.87185 13.9793 7.00327 13.9793 7.12831 13.9464C8.20278 13.6638 9.88124 13.0947 11.305 11.9922C12.7511 10.8722 13.9531 9.18134 13.9531 6.72248C13.9531 4.75552 13.6782 3.54439 13.3594 2.79527C13.199 2.41834 13.0264 2.15597 12.8706 1.97506C12.7929 1.88481 12.7204 1.81607 12.6575 1.76435C12.6261 1.73855 12.5973 1.71717 12.5717 1.6996C12.5589 1.69082 12.5469 1.68301 12.5358 1.67609L12.5199 1.66638L12.5125 1.66201L12.5089 1.65994L12.5072 1.65894Z" clipRule="evenodd" /><path fill="#034dca" fillRule="evenodd" d="M7 13.9685C7.04321 13.9649 7.08619 13.9575 7.12844 13.9464C8.2029 13.6638 9.88136 13.0947 11.3051 11.9922C12.7512 10.8722 13.9532 9.18133 13.9532 6.72248C13.9532 4.75552 13.6783 3.54439 13.3595 2.79527C13.1991 2.41834 13.0265 2.15597 12.8707 1.97506C12.793 1.88481 12.7205 1.81607 12.6576 1.76435C12.6262 1.73855 12.5974 1.71717 12.5718 1.6996C12.559 1.69082 12.547 1.68301 12.536 1.67609L12.5201 1.66638L12.5126 1.66201L12.5091 1.65994L12.5073 1.65894C12.5064 1.65844 12.5056 1.65795 12.1355 2.3103L12.5056 1.65795C12.4843 1.64591 12.4624 1.63484 12.4401 1.62493L12.4368 1.62345L12.4283 1.61972L12.397 1.60599C12.37 1.59414 12.3306 1.57703 12.2803 1.5554C12.1796 1.51216 12.0348 1.4508 11.8561 1.37735C11.4992 1.23067 11.0046 1.03473 10.4544 0.838334C9.39398 0.459796 7.99383 0.0290527 7.00006 0.0290527C7.00004 0.0290527 7.00002 0.0290527 7 0.0290527V13.9685ZM12.1355 2.3103L12.4401 1.62493C12.4402 1.62497 12.4402 1.625 12.1355 2.3103Z" clipRule="evenodd" /></svg>